<?xml version="1.0" encoding="UTF-8"?>
<!DOCTYPE svg PUBLIC "-//W3C//DTD SVG 1.1//EN" "http://www.w3.org/Graphics/SVG/1.1/DTD/svg11.dtd">
<svg xmlns="http://www.w3.org/2000/svg" version="1.1" width="200px" height="200px" style="shape-rendering:geometricPrecision; text-rendering:geometricPrecision; image-rendering:optimizeQuality; fill-rule:evenodd; clip-rule:evenodd" xmlns:xlink="http://www.w3.org/1999/xlink">
<g><path style="opacity:0.32" fill="#0f260c" d="M 132.5,27.5 C 130.315,27.2964 128.315,26.6298 126.5,25.5C 126.167,24.5 125.5,23.8333 124.5,23.5C 124.5,22.8333 124.167,22.5 123.5,22.5C 123.038,20.2433 122.038,18.2433 120.5,16.5C 116.893,15.5108 113.226,15.1774 109.5,15.5C 109.167,15.5 108.833,15.5 108.5,15.5C 108.167,15.5 107.833,15.5 107.5,15.5C 107.5,14.1667 107.5,12.8333 107.5,11.5C 111.884,11.8256 116.217,11.4922 120.5,10.5C 121.603,7.28118 123.437,4.61452 126,2.5C 127.225,2.86229 128.391,3.36229 129.5,4C 127.817,7.00998 126.15,10.01 124.5,13C 127.045,17.9249 129.712,22.7583 132.5,27.5 Z"/></g>
<g><path style="opacity:0.493" fill="#2d5b1f" d="M 91.5,-0.5 C 93.1667,-0.5 94.8333,-0.5 96.5,-0.5C 98.8333,3.5 101.167,7.5 103.5,11.5C 101.833,11.5 100.167,11.5 98.5,11.5C 96.1816,7.53545 93.8483,3.53545 91.5,-0.5 Z"/></g>
<g><path style="opacity:0.307" fill="#445f3d" d="M 74.5,25.5 C 73.3646,27.2132 71.698,27.8799 69.5,27.5C 67.7788,23.7274 65.7788,20.0608 63.5,16.5C 57.5368,15.5041 51.5368,15.1707 45.5,15.5C 46.7489,13.8639 48.4156,12.6972 50.5,12C 54.8711,11.8275 59.2044,11.3275 63.5,10.5C 64.5667,5.93277 67.4,3.26611 72,2.5C 71.2357,6.20819 69.7357,9.70819 67.5,13C 69.6807,17.3235 72.014,21.4902 74.5,25.5 Z"/></g>
<g><path style="opacity:0.515" fill="#455d3f" d="M 98.5,11.5 C 100.167,11.5 101.833,11.5 103.5,11.5C 104.833,11.5 106.167,11.5 107.5,11.5C 107.5,12.8333 107.5,14.1667 107.5,15.5C 105.219,15.0773 103.552,15.744 102.5,17.5C 100.076,20.6564 97.409,23.6564 94.5,26.5C 94.1667,26 93.8333,25.5 93.5,25C 94.8561,23.4329 95.5228,21.5996 95.5,19.5C 97.7347,17.0774 98.7347,14.4108 98.5,11.5 Z"/></g>
<g><path style="opacity:0.259" fill="#31ff02" d="M 155.5,22.5 C 154.5,21.8333 153.5,21.1667 152.5,20.5C 153.32,18.8599 154.153,17.1932 155,15.5C 159.317,17.5343 159.483,19.8676 155.5,22.5 Z"/></g>
<g><path style="opacity:0.293" fill="#9fff87" d="M 152.5,20.5 C 153.5,21.1667 154.5,21.8333 155.5,22.5C 154.906,24.8553 153.906,27.022 152.5,29C 154.745,33.0697 156.745,37.2363 158.5,41.5C 156.833,40.8333 155.167,40.1667 153.5,39.5C 152.5,39.1667 151.833,38.5 151.5,37.5C 151.5,36.8333 151.167,36.5 150.5,36.5C 149.928,34.7446 149.094,33.0779 148,31.5C 146.301,32.4061 144.467,32.7394 142.5,32.5C 141.699,30.9582 141.366,29.2915 141.5,27.5C 143.857,27.6633 146.19,27.4966 148.5,27C 149.733,24.6857 151.067,22.5191 152.5,20.5 Z"/></g>
<g><path style="opacity:1" fill="#e1f6eb" d="M 108.5,15.5 C 108.833,15.5 109.167,15.5 109.5,15.5C 113.849,18.3411 118.516,20.6745 123.5,22.5C 124.167,22.5 124.5,22.8333 124.5,23.5C 125.5,23.8333 126.167,24.5 126.5,25.5C 128.081,27.1417 128.747,29.1417 128.5,31.5C 123.5,29.6679 119.167,26.8346 115.5,23C 112.475,22.8665 109.808,21.8665 107.5,20C 106.167,19.3333 104.833,19.3333 103.5,20C 96.3605,25.4241 96.8605,26.5908 105,23.5C 105.765,23.5699 106.265,23.9033 106.5,24.5C 94.3027,33.5863 82.9693,43.5863 72.5,54.5C 71.8333,54.5 71.5,54.8333 71.5,55.5C 70.1054,57.0544 69.4387,56.721 69.5,54.5C 71.1691,49.1598 72.8358,43.8265 74.5,38.5C 75.7787,35.8883 77.4453,33.5549 79.5,31.5C 81.3594,30.4058 83.3594,29.5725 85.5,29C 82.1832,28.5017 78.8499,28.335 75.5,28.5C 76.1667,27.5 76.8333,26.5 77.5,25.5C 83.3569,23.3255 89.3569,21.3255 95.5,19.5C 95.5228,21.5996 94.8561,23.4329 93.5,25C 93.8333,25.5 94.1667,26 94.5,26.5C 97.409,23.6564 100.076,20.6564 102.5,17.5C 104.698,17.1249 106.698,16.4582 108.5,15.5 Z"/></g>
<g><path style="opacity:0.253" fill="#aef325" d="M 133.5,27.5 C 136.167,27.5 138.833,27.5 141.5,27.5C 141.366,29.2915 141.699,30.9582 142.5,32.5C 139.57,31.701 136.57,31.3677 133.5,31.5C 133.5,30.1667 133.5,28.8333 133.5,27.5 Z"/></g>
<g><path style="opacity:0.463" fill="#7b8778" d="M 75.5,28.5 C 78.8499,28.335 82.1832,28.5017 85.5,29C 83.3594,29.5725 81.3594,30.4058 79.5,31.5C 77.0509,32.0574 74.7175,32.0574 72.5,31.5C 73.1882,30.1451 74.1882,29.1451 75.5,28.5 Z"/></g>
<g><path style="opacity:0.478" fill="#6c8777" d="M 126.5,25.5 C 128.315,26.6298 130.315,27.2964 132.5,27.5C 132.833,27.5 133.167,27.5 133.5,27.5C 133.5,28.8333 133.5,30.1667 133.5,31.5C 132.167,31.5 131.5,32.1667 131.5,33.5C 129.973,33.573 128.973,32.9063 128.5,31.5C 128.747,29.1417 128.081,27.1417 126.5,25.5 Z"/></g>
<g><path style="opacity:0.314" fill="#4b6343" d="M 45.5,15.5 C 43.2255,20.1331 40.8921,24.7997 38.5,29.5C 39.5133,31.5266 40.5133,33.5266 41.5,35.5C 41.5,35.8333 41.5,36.1667 41.5,36.5C 40.0413,36.4326 38.7079,36.7659 37.5,37.5C 36.5604,35.3875 35.3937,33.3875 34,31.5C 33.3292,32.2524 32.4959,32.5858 31.5,32.5C 30.6993,30.9582 30.366,29.2915 30.5,27.5C 31.8734,27.6567 33.2068,27.49 34.5,27C 36.3452,21.3234 40.0118,17.4901 45.5,15.5 Z"/></g>
<g><path style="opacity:0.196" fill="#30981d" d="M 30.5,27.5 C 30.366,29.2915 30.6993,30.9582 31.5,32.5C 24.0113,32.4525 23.678,30.7858 30.5,27.5 Z"/></g>
<g><path style="opacity:0.478" fill="#95fdeb" d="M 128.5,31.5 C 128.973,32.9063 129.973,33.573 131.5,33.5C 133.901,34.0488 136.235,34.8822 138.5,36C 137.849,37.308 138.515,38.1414 140.5,38.5C 139.081,39.4511 137.415,39.7845 135.5,39.5C 135.586,38.5041 135.252,37.6708 134.5,37C 130.536,36.0193 127.203,34.0193 124.5,31C 118.36,28.9773 112.36,26.8107 106.5,24.5C 106.265,23.9033 105.765,23.5699 105,23.5C 96.8605,26.5908 96.3605,25.4241 103.5,20C 104.833,19.3333 106.167,19.3333 107.5,20C 109.808,21.8665 112.475,22.8665 115.5,23C 119.167,26.8346 123.5,29.6679 128.5,31.5 Z"/></g>
<g><path style="opacity:0.161" fill="#f0fff8" d="M 133.5,31.5 C 136.57,31.3677 139.57,31.701 142.5,32.5C 144.849,34.341 147.515,35.6743 150.5,36.5C 151.167,36.5 151.5,36.8333 151.5,37.5C 151.833,38.5 152.5,39.1667 153.5,39.5C 154.368,41.4021 155.368,43.2355 156.5,45C 156.167,45.5 155.833,46 155.5,46.5C 150.944,42.931 145.944,40.2643 140.5,38.5C 138.515,38.1414 137.849,37.308 138.5,36C 136.235,34.8822 133.901,34.0488 131.5,33.5C 131.5,32.1667 132.167,31.5 133.5,31.5 Z"/></g>
<g><path style="opacity:0.951" fill="#be2684" d="M 74.5,25.5 C 75.5,25.5 76.5,25.5 77.5,25.5C 76.8333,26.5 76.1667,27.5 75.5,28.5C 74.1882,29.1451 73.1882,30.1451 72.5,31.5C 74.7175,32.0574 77.0509,32.0574 79.5,31.5C 77.4453,33.5549 75.7787,35.8883 74.5,38.5C 71.8333,40.8333 69.1667,43.1667 66.5,45.5C 63.3484,46.0414 60.8484,45.0414 59,42.5C 57.0283,43.3052 55.5283,44.6385 54.5,46.5C 50.5078,44.4745 46.8411,42.1412 43.5,39.5C 43.0679,38.2905 42.4013,37.2905 41.5,36.5C 41.5,36.1667 41.5,35.8333 41.5,35.5C 50.8333,32.8333 60.1667,30.1667 69.5,27.5C 71.698,27.8799 73.3646,27.2132 74.5,25.5 Z"/></g>
<g><path style="opacity:0.29" fill="#9aff83" d="M 185.5,55.5 C 183.833,54.8333 182.167,54.1667 180.5,53.5C 179.5,53.1667 178.833,52.5 178.5,51.5C 178.5,50.8333 178.167,50.5 177.5,50.5C 176.817,48.8235 175.483,48.1568 173.5,48.5C 171.5,48.1667 169.5,47.8333 167.5,47.5C 166.167,46.1667 164.833,44.8333 163.5,43.5C 168.544,43.8275 173.544,43.4941 178.5,42.5C 179.987,38.8585 181.321,39.1919 182.5,43.5C 182.013,44.4461 181.68,45.4461 181.5,46.5C 183.1,49.3681 184.433,52.3681 185.5,55.5 Z"/></g>
<g><path style="opacity:1" fill="#2dfbcf" d="M 106.5,24.5 C 112.36,26.8107 118.36,28.9773 124.5,31C 127.203,34.0193 130.536,36.0193 134.5,37C 135.252,37.6708 135.586,38.5041 135.5,39.5C 135.5,39.8333 135.5,40.1667 135.5,40.5C 133.585,40.2155 131.919,40.5489 130.5,41.5C 111.096,45.4634 91.7623,49.7968 72.5,54.5C 82.9693,43.5863 94.3027,33.5863 106.5,24.5 Z"/></g>
<g><path style="opacity:1" fill="#71ff6f" d="M 130.5,41.5 C 131.919,40.5489 133.585,40.2155 135.5,40.5C 137.199,40.3398 138.866,40.5065 140.5,41C 146.419,44.7876 152.419,48.2876 158.5,51.5C 163.546,54.1995 168.212,57.5328 172.5,61.5C 172.043,62.2975 171.376,62.6309 170.5,62.5C 167.34,61.1094 164.674,58.9427 162.5,56C 156.445,52.7568 150.112,50.0902 143.5,48C 141.592,45.04 138.925,43.04 135.5,42C 133.866,41.5065 132.199,41.3398 130.5,41.5 Z"/></g>
<g><path style="opacity:1" fill="#a7216d" d="M 43.5,39.5 C 46.8411,42.1412 50.5078,44.4745 54.5,46.5C 55.5283,44.6385 57.0283,43.3052 59,42.5C 60.8484,45.0414 63.3484,46.0414 66.5,45.5C 63.2088,50.1267 59.5421,54.46 55.5,58.5C 53.8333,59.5 52.5,60.8333 51.5,62.5C 49.4727,62.3379 47.4727,62.5045 45.5,63C 46.1667,63.3333 46.8333,63.6667 47.5,64C 46.3333,64.1667 45.1667,64.3333 44,64.5C 40.7442,62.8762 37.5775,62.2096 34.5,62.5C 33.8166,60.8235 32.4832,60.1568 30.5,60.5C 33.8797,53.7379 36.713,46.7379 39,39.5C 40.093,41.3492 41.4263,43.0158 43,44.5C 44.7884,42.9769 44.9551,41.3102 43.5,39.5 Z"/></g>
<g><path style="opacity:1" fill="#3ef627" d="M 130.5,41.5 C 132.199,41.3398 133.866,41.5065 135.5,42C 138.925,43.04 141.592,45.04 143.5,48C 150.112,50.0902 156.445,52.7568 162.5,56C 164.674,58.9427 167.34,61.1094 170.5,62.5C 167.833,62.5 165.167,62.5 162.5,62.5C 147.833,61.5 133.166,60.5 118.5,59.5C 116.801,59.3398 115.134,59.5065 113.5,60C 117.45,62.4359 119.45,65.9359 119.5,70.5C 113.827,60.4812 105.16,56.1479 93.5,57.5C 91.1944,57.0074 88.861,56.6741 86.5,56.5C 85.1667,56.5 83.8333,56.5 82.5,56.5C 78.6286,56.815 74.9619,56.4816 71.5,55.5C 71.5,54.8333 71.8333,54.5 72.5,54.5C 91.7623,49.7968 111.096,45.4634 130.5,41.5 Z"/></g>
<g><path style="opacity:0.194" fill="#f3fffa" d="M 167.5,47.5 C 169.5,47.8333 171.5,48.1667 173.5,48.5C 174.514,49.6737 175.847,50.3404 177.5,50.5C 178.167,50.5 178.5,50.8333 178.5,51.5C 178.833,52.5 179.5,53.1667 180.5,53.5C 181.487,55.4734 182.487,57.4734 183.5,59.5C 183.167,59.8333 182.833,60.1667 182.5,60.5C 176.51,57.8403 170.844,54.6736 165.5,51C 163.527,50.5045 161.527,50.3379 159.5,50.5C 159.5,49.5 159.5,48.5 159.5,47.5C 162.167,47.5 164.833,47.5 167.5,47.5 Z"/></g>
<g><path style="opacity:1" fill="#504149" d="M 74.5,38.5 C 72.8358,43.8265 71.1691,49.1598 69.5,54.5C 69.4387,56.721 70.1054,57.0544 71.5,55.5C 74.9619,56.4816 78.6286,56.815 82.5,56.5C 79.2994,58.2603 75.6327,59.0936 71.5,59C 70.6634,60.0113 70.33,61.1779 70.5,62.5C 68.5294,60.0082 66.6961,60.3416 65,63.5C 64.6258,62.5838 64.1258,61.7504 63.5,61C 60.6898,60.2177 58.0232,59.3844 55.5,58.5C 59.5421,54.46 63.2088,50.1267 66.5,45.5C 69.1667,43.1667 71.8333,40.8333 74.5,38.5 Z"/></g>
<g><path style="opacity:0.196" fill="#a5527e" d="M 41.5,36.5 C 42.4013,37.2905 43.0679,38.2905 43.5,39.5C 44.9551,41.3102 44.7884,42.9769 43,44.5C 41.4263,43.0158 40.093,41.3492 39,39.5C 36.713,46.7379 33.8797,53.7379 30.5,60.5C 28.8333,60.5 27.1667,60.5 25.5,60.5C 29.5,52.8333 33.5,45.1667 37.5,37.5C 38.7079,36.7659 40.0413,36.4326 41.5,36.5 Z"/></g>
<g><path style="opacity:1" fill="#effde9" d="M 93.5,57.5 C 105.16,56.1479 113.827,60.4812 119.5,70.5C 124.405,87.41 124.738,104.41 120.5,121.5C 119.803,124.423 118.803,127.256 117.5,130C 118.717,132.927 120.55,135.427 123,137.5C 123.667,138.167 123.667,138.833 123,139.5C 118.599,140.467 114.099,140.8 109.5,140.5C 108.596,139.791 108.263,138.791 108.5,137.5C 111.898,137.82 115.232,137.487 118.5,136.5C 118.376,135.893 118.043,135.56 117.5,135.5C 116.092,134.089 115.092,132.423 114.5,130.5C 121.86,110.661 122.36,90.6613 116,70.5C 110.875,61.8979 103.375,58.7313 93.5,61C 86.4084,64.2653 82.0751,69.7653 80.5,77.5C 78.9607,84.4317 78.294,91.5984 78.5,99C 78.5006,104.344 78.834,109.511 79.5,114.5C 79.8638,123.11 83.1971,130.277 89.5,136C 93.0267,136.808 96.3601,136.641 99.5,135.5C 101.813,133.791 103.313,131.457 104,128.5C 104.499,124.514 104.666,120.514 104.5,116.5C 104.667,104.162 104.5,91.8288 104,79.5C 103.168,74.8476 100.668,73.5143 96.5,75.5C 94.1096,81.2358 93.1096,87.2358 93.5,93.5C 93.917,102.171 94.417,110.838 95,119.5C 95.2321,120.737 95.7321,121.737 96.5,122.5C 98.129,124.196 97.7957,125.196 95.5,125.5C 93.1703,123.458 92.0036,120.792 92,117.5C 91.3333,104.833 91.3333,92.1667 92,79.5C 93.4781,71.97 97.4781,69.97 104,73.5C 105.562,75.9573 106.562,78.624 107,81.5C 107.5,96.1629 107.667,110.83 107.5,125.5C 105.428,139.038 98.0949,142.871 85.5,137C 84.2125,135.59 83.0458,134.09 82,132.5C 79.6677,126.787 77.501,121.12 75.5,115.5C 75.5,114.5 75.5,113.5 75.5,112.5C 74.9082,99.7195 75.7416,87.0529 78,74.5C 80.4531,66.1939 85.6197,60.5272 93.5,57.5 Z"/></g>
<g><path style="opacity:0.604" fill="#cbfccc" d="M 140.5,38.5 C 145.944,40.2643 150.944,42.931 155.5,46.5C 155.833,46 156.167,45.5 156.5,45C 155.368,43.2355 154.368,41.4021 153.5,39.5C 155.167,40.1667 156.833,40.8333 158.5,41.5C 160.05,42.4408 161.716,43.1075 163.5,43.5C 164.833,44.8333 166.167,46.1667 167.5,47.5C 164.833,47.5 162.167,47.5 159.5,47.5C 159.5,48.5 159.5,49.5 159.5,50.5C 161.527,50.3379 163.527,50.5045 165.5,51C 170.844,54.6736 176.51,57.8403 182.5,60.5C 182.833,60.1667 183.167,59.8333 183.5,59.5C 182.487,57.4734 181.487,55.4734 180.5,53.5C 182.167,54.1667 183.833,54.8333 185.5,55.5C 186.167,55.5 186.5,55.8333 186.5,56.5C 186.923,57.2646 187.257,58.0979 187.5,59C 185.294,60.2502 183.961,62.0835 183.5,64.5C 181.167,64.5 178.833,64.5 176.5,64.5C 175.508,64.6716 174.842,64.3382 174.5,63.5C 179.422,63.8896 179.756,62.7229 175.5,60C 171.074,57.6135 166.74,54.9468 162.5,52C 161.207,51.51 159.873,51.3433 158.5,51.5C 152.419,48.2876 146.419,44.7876 140.5,41C 138.866,40.5065 137.199,40.3398 135.5,40.5C 135.5,40.1667 135.5,39.8333 135.5,39.5C 137.415,39.7845 139.081,39.4511 140.5,38.5 Z"/></g>
<g><path style="opacity:1" fill="#96f493" d="M 158.5,51.5 C 159.873,51.3433 161.207,51.51 162.5,52C 166.74,54.9468 171.074,57.6135 175.5,60C 179.756,62.7229 179.422,63.8896 174.5,63.5C 170.298,63.8168 166.298,63.4834 162.5,62.5C 165.167,62.5 167.833,62.5 170.5,62.5C 171.376,62.6309 172.043,62.2975 172.5,61.5C 168.212,57.5328 163.546,54.1995 158.5,51.5 Z"/></g>
<g><path style="opacity:0.323" fill="#cad2c1" d="M 22.5,60.5 C 22.4142,61.4959 22.7476,62.3292 23.5,63C 26.4816,63.498 29.4816,63.6646 32.5,63.5C 32.5,64.1667 32.1667,64.5 31.5,64.5C 28.5,64.5 25.5,64.5 22.5,64.5C 21.1266,64.3433 19.7932,64.51 18.5,65C 17.0229,66.8121 15.6896,68.6455 14.5,70.5C 13.9759,68.6943 13.3092,67.0276 12.5,65.5C 13.4731,63.9317 13.6397,62.265 13,60.5C 9.34527,57.2993 9.01194,53.9659 12,50.5C 14.3353,53.1662 16.1686,56.1662 17.5,59.5C 19.0453,60.4519 20.712,60.7852 22.5,60.5 Z"/></g>
<g><path style="opacity:1" fill="#569344" d="M 82.5,56.5 C 83.8333,56.5 85.1667,56.5 86.5,56.5C 86.9175,57.2216 87.5842,57.7216 88.5,58C 85.6383,58.2704 82.9716,59.1038 80.5,60.5C 78.7416,66.617 75.9083,66.9503 72,61.5C 71.5357,62.0944 71.369,62.7611 71.5,63.5C 71.1667,63.5 70.8333,63.5 70.5,63.5C 70.5,63.1667 70.5,62.8333 70.5,62.5C 70.33,61.1779 70.6634,60.0113 71.5,59C 75.6327,59.0936 79.2994,58.2603 82.5,56.5 Z"/></g>
<g><path style="opacity:1" fill="#506659" d="M 118.5,59.5 C 133.166,60.5 147.833,61.5 162.5,62.5C 166.298,63.4834 170.298,63.8168 174.5,63.5C 174.842,64.3382 175.508,64.6716 176.5,64.5C 178.954,65.6206 181.621,66.454 184.5,67C 188.415,69.4551 192.415,71.6217 196.5,73.5C 196.5,74.1667 196.5,74.8333 196.5,75.5C 194.565,80.5729 193.232,85.9063 192.5,91.5C 191.833,91.5 191.5,91.8333 191.5,92.5C 191.158,93.3382 190.492,93.6716 189.5,93.5C 190.526,87.7744 191.859,82.1077 193.5,76.5C 192.9,74.5323 191.567,73.5323 189.5,73.5C 189.5,72.8333 189.167,72.5 188.5,72.5C 188.586,71.5041 188.252,70.6708 187.5,70C 183.669,70.2891 180.002,69.2891 176.5,67C 173.937,66.0819 171.77,66.5819 170,68.5C 169.481,67.4844 168.647,66.8178 167.5,66.5C 166.151,66.8457 164.817,67.179 163.5,67.5C 150.2,68.7207 136.866,69.7207 123.5,70.5C 122.284,66.651 120.617,62.9843 118.5,59.5 Z"/></g>
<g><path style="opacity:0.459" fill="#6cac38" d="M 22.5,60.5 C 23.5,60.5 24.5,60.5 25.5,60.5C 27.1667,60.5 28.8333,60.5 30.5,60.5C 32.4832,60.1568 33.8166,60.8235 34.5,62.5C 33.8333,62.8333 33.1667,63.1667 32.5,63.5C 29.4816,63.6646 26.4816,63.498 23.5,63C 22.7476,62.3292 22.4142,61.4959 22.5,60.5 Z"/></g>
<g><path style="opacity:1" fill="#58ca31" d="M 86.5,56.5 C 88.861,56.6741 91.1944,57.0074 93.5,57.5C 85.6197,60.5272 80.4531,66.1939 78,74.5C 75.7416,87.0529 74.9082,99.7195 75.5,112.5C 72.5905,99.8752 72.9239,87.2085 76.5,74.5C 76.4805,73.2739 76.1471,72.2739 75.5,71.5C 74.1799,68.8599 72.8466,66.1932 71.5,63.5C 71.369,62.7611 71.5357,62.0944 72,61.5C 75.9083,66.9503 78.7416,66.617 80.5,60.5C 82.9716,59.1038 85.6383,58.2704 88.5,58C 87.5842,57.7216 86.9175,57.2216 86.5,56.5 Z"/></g>
<g><path style="opacity:0.455" fill="#c7dfe0" d="M 186.5,56.5 C 188.17,56.7512 189.67,57.4178 191,58.5C 193.332,63.3316 195.166,68.3316 196.5,73.5C 192.415,71.6217 188.415,69.4551 184.5,67C 181.621,66.454 178.954,65.6206 176.5,64.5C 178.833,64.5 181.167,64.5 183.5,64.5C 183.961,62.0835 185.294,60.2502 187.5,59C 187.257,58.0979 186.923,57.2646 186.5,56.5 Z"/></g>
<g><path style="opacity:0.268" fill="#3efe18" d="M 12.5,65.5 C 13.3092,67.0276 13.9759,68.6943 14.5,70.5C 12.6249,73.5884 11.2915,76.9217 10.5,80.5C 7.5,80.5 4.5,80.5 1.5,80.5C 1.07418,79.4721 1.07418,78.1388 1.5,76.5C 3.28801,76.7852 4.95467,76.4519 6.5,75.5C 8.51133,72.1389 10.5113,68.8056 12.5,65.5 Z"/></g>
<g><path style="opacity:1" fill="#35483b" d="M 163.5,67.5 C 163.185,71.8004 160.851,73.467 156.5,72.5C 156.481,74.0603 156.148,75.5603 155.5,77C 156.613,78.3943 157.947,79.561 159.5,80.5C 157.231,81.0046 155.897,82.3379 155.5,84.5C 146.3,85.8641 137.3,87.5307 128.5,89.5C 127.833,89.5 127.167,89.5 126.5,89.5C 126.795,87.2646 126.461,85.2646 125.5,83.5C 124.093,79.317 123.426,74.9836 123.5,70.5C 136.866,69.7207 150.2,68.7207 163.5,67.5 Z"/></g>
<g><path style="opacity:1" fill="#3e4d51" d="M 188.5,72.5 C 186.254,71.5448 183.921,70.8782 181.5,70.5C 181.5,73.1667 181.5,75.8333 181.5,78.5C 177.204,80.6747 172.537,82.008 167.5,82.5C 166.353,82.8178 165.519,83.4844 165,84.5C 162.204,83.3213 159.371,83.3213 156.5,84.5C 156.167,84.5 155.833,84.5 155.5,84.5C 155.897,82.3379 157.231,81.0046 159.5,80.5C 157.947,79.561 156.613,78.3943 155.5,77C 156.148,75.5603 156.481,74.0603 156.5,72.5C 160.851,73.467 163.185,71.8004 163.5,67.5C 164.817,67.179 166.151,66.8457 167.5,66.5C 168.647,66.8178 169.481,67.4844 170,68.5C 171.77,66.5819 173.937,66.0819 176.5,67C 180.002,69.2891 183.669,70.2891 187.5,70C 188.252,70.6708 188.586,71.5041 188.5,72.5 Z"/></g>
<g><path style="opacity:0.188" fill="#96456c" d="M 22.5,64.5 C 25.5,64.5 28.5,64.5 31.5,64.5C 29.0623,71.3716 25.5623,77.705 21,83.5C 20.2987,87.1091 19.1321,90.4425 17.5,93.5C 15.7073,90.366 14.374,87.0327 13.5,83.5C 16.7567,77.3186 19.7567,70.9852 22.5,64.5 Z"/></g>
<g><path style="opacity:1" fill="#7e0b44" d="M 34.5,62.5 C 37.5775,62.2096 40.7442,62.8762 44,64.5C 45.1667,64.3333 46.3333,64.1667 47.5,64C 46.8333,63.6667 46.1667,63.3333 45.5,63C 47.4727,62.5045 49.4727,62.3379 51.5,62.5C 48.8333,65.5 46.1667,68.5 43.5,71.5C 34.4313,80.2321 26.098,89.5654 18.5,99.5C 17.5084,99.3284 16.8417,99.6618 16.5,100.5C 15.5028,100.53 14.8361,100.03 14.5,99C 15.0439,97.415 15.7106,95.915 16.5,94.5C 16.5,93.8333 16.8333,93.5 17.5,93.5C 19.1321,90.4425 20.2987,87.1091 21,83.5C 25.5623,77.705 29.0623,71.3716 31.5,64.5C 32.1667,64.5 32.5,64.1667 32.5,63.5C 33.1667,63.1667 33.8333,62.8333 34.5,62.5 Z"/></g>
<g><path style="opacity:0.013" fill="#aa0450" d="M 196.5,75.5 C 197.5,78.8333 198.5,82.1667 199.5,85.5C 199.5,87.1667 199.5,88.8333 199.5,90.5C 196.167,91.8333 193.833,94.1667 192.5,97.5C 191.833,97.5 191.167,97.5 190.5,97.5C 189.508,97.6716 188.842,97.3382 188.5,96.5C 188.263,95.209 188.596,94.209 189.5,93.5C 190.492,93.6716 191.158,93.3382 191.5,92.5C 193.224,92.5393 193.557,92.206 192.5,91.5C 193.232,85.9063 194.565,80.5729 196.5,75.5 Z"/></g>
<g><path style="opacity:0.301" fill="#a8ff92" d="M 1.5,80.5 C 4.5,80.5 7.5,80.5 10.5,80.5C 11.9063,80.9731 12.573,81.9731 12.5,83.5C 12.7709,85.3797 12.1042,86.713 10.5,87.5C 9.02992,85.8487 7.69658,84.0153 6.5,82C 4.61828,81.8019 2.95161,81.3019 1.5,80.5 Z"/></g>
<g><path style="opacity:1" fill="#2c1c2a" d="M 55.5,58.5 C 58.0232,59.3844 60.6898,60.2177 63.5,61C 64.1258,61.7504 64.6258,62.5838 65,63.5C 66.6961,60.3416 68.5294,60.0082 70.5,62.5C 70.5,62.8333 70.5,63.1667 70.5,63.5C 68.9412,69.158 67.2745,74.8247 65.5,80.5C 64.7756,87.3257 63.4422,93.9924 61.5,100.5C 56.1667,100.5 50.8333,100.5 45.5,100.5C 44.6992,96.8321 44.6992,93.3321 45.5,90C 46.7588,89.0766 48.0921,88.2432 49.5,87.5C 50.1153,84.9607 50.7819,82.4607 51.5,80C 47.8614,78.032 45.1948,75.1986 43.5,71.5C 46.1667,68.5 48.8333,65.5 51.5,62.5C 52.5,60.8333 53.8333,59.5 55.5,58.5 Z"/></g>
<g><path style="opacity:1" fill="#2e1b49" d="M 181.5,78.5 C 182.183,80.1765 183.517,80.8432 185.5,80.5C 185.675,82.6208 185.341,84.6208 184.5,86.5C 174.237,89.1549 163.903,91.4882 153.5,93.5C 152.957,93.44 152.624,93.1067 152.5,92.5C 153.835,89.8016 155.168,87.135 156.5,84.5C 159.371,83.3213 162.204,83.3213 165,84.5C 165.519,83.4844 166.353,82.8178 167.5,82.5C 172.537,82.008 177.204,80.6747 181.5,78.5 Z"/></g>
<g><path style="opacity:1" fill="#1a1725" d="M 155.5,84.5 C 155.833,84.5 156.167,84.5 156.5,84.5C 155.168,87.135 153.835,89.8016 152.5,92.5C 152.624,93.1067 152.957,93.44 153.5,93.5C 153.5,93.8333 153.5,94.1667 153.5,94.5C 145.331,95.8666 137.331,97.8666 129.5,100.5C 128.511,96.8927 128.177,93.226 128.5,89.5C 137.3,87.5307 146.3,85.8641 155.5,84.5 Z"/></g>
<g><path style="opacity:0.476" fill="#90ad74" d="M 12.5,83.5 C 12.8333,83.5 13.1667,83.5 13.5,83.5C 14.374,87.0327 15.7073,90.366 17.5,93.5C 16.8333,93.5 16.5,93.8333 16.5,94.5C 15.8333,94.5 15.1667,94.5 14.5,94.5C 13.6493,92.1184 12.316,90.1184 10.5,88.5C 10.5,88.1667 10.5,87.8333 10.5,87.5C 12.1042,86.713 12.7709,85.3797 12.5,83.5 Z"/></g>
<g><path style="opacity:1" fill="#3f8628" d="M 118.5,59.5 C 120.617,62.9843 122.284,66.651 123.5,70.5C 123.426,74.9836 124.093,79.317 125.5,83.5C 125.58,96.8467 125.247,110.18 124.5,123.5C 124.167,123.5 123.833,123.5 123.5,123.5C 123.027,122.094 122.027,121.427 120.5,121.5C 124.738,104.41 124.405,87.41 119.5,70.5C 119.45,65.9359 117.45,62.4359 113.5,60C 115.134,59.5065 116.801,59.3398 118.5,59.5 Z"/></g>
<g><path style="opacity:0.314" fill="#070f02" d="M 199.5,90.5 C 199.5,92.8333 199.5,95.1667 199.5,97.5C 197.167,97.5 194.833,97.5 192.5,97.5C 193.833,94.1667 196.167,91.8333 199.5,90.5 Z"/></g>
<g><path style="opacity:1" fill="#343739" d="M 70.5,63.5 C 70.8333,63.5 71.1667,63.5 71.5,63.5C 72.8466,66.1932 74.1799,68.8599 75.5,71.5C 75.561,74.9507 74.561,77.9507 72.5,80.5C 69.8411,93.072 69.8411,105.739 72.5,118.5C 69.1924,121.471 65.859,124.471 62.5,127.5C 63.2448,113.277 64.5782,99.1099 66.5,85C 66.4915,83.2933 66.1582,81.7933 65.5,80.5C 67.2745,74.8247 68.9412,69.158 70.5,63.5 Z"/></g>
<g><path style="opacity:0.788" fill="#0e1217" d="M 188.5,72.5 C 189.167,72.5 189.5,72.8333 189.5,73.5C 186.276,86.7433 182.609,99.7433 178.5,112.5C 179.007,108.14 179.673,103.807 180.5,99.5C 182.279,95.406 183.612,91.0726 184.5,86.5C 185.341,84.6208 185.675,82.6208 185.5,80.5C 183.517,80.8432 182.183,80.1765 181.5,78.5C 181.5,75.8333 181.5,73.1667 181.5,70.5C 183.921,70.8782 186.254,71.5448 188.5,72.5 Z"/></g>
<g><path style="opacity:0.192" fill="#a37589" d="M 10.5,88.5 C 12.316,90.1184 13.6493,92.1184 14.5,94.5C 12.5293,96.8082 10.5293,99.1415 8.5,101.5C 5.5,104.167 2.5,106.833 -0.5,109.5C -0.5,108.833 -0.5,108.167 -0.5,107.5C 3.41923,101.33 7.08589,94.9969 10.5,88.5 Z"/></g>
<g><path style="opacity:1" fill="#140b0e" d="M 43.5,71.5 C 45.1948,75.1986 47.8614,78.032 51.5,80C 50.7819,82.4607 50.1153,84.9607 49.5,87.5C 48.0921,88.2432 46.7588,89.0766 45.5,90C 44.6992,93.3321 44.6992,96.8321 45.5,100.5C 36.4465,100.778 27.4465,100.444 18.5,99.5C 26.098,89.5654 34.4313,80.2321 43.5,71.5 Z"/></g>
<g><path style="opacity:1" fill="#32502c" d="M 72.5,80.5 C 72.1874,92.9133 72.5208,105.247 73.5,117.5C 73.5,118.167 73.1667,118.5 72.5,118.5C 69.8411,105.739 69.8411,93.072 72.5,80.5 Z"/></g>
<g><path style="opacity:1" fill="#2f7c0d" d="M 82.5,83.5 C 84.3222,86.4721 86.1555,89.4721 88,92.5C 88.7684,96.9196 88.6018,101.253 87.5,105.5C 85.5,107.167 83.5,108.833 81.5,110.5C 80.8348,107.183 80.5014,103.683 80.5,100C 80.3582,94.2574 81.0249,88.7574 82.5,83.5 Z"/></g>
<g><path style="opacity:1" fill="#2e2e38" d="M 126.5,89.5 C 127.167,89.5 127.833,89.5 128.5,89.5C 128.177,93.226 128.511,96.8927 129.5,100.5C 137.331,97.8666 145.331,95.8666 153.5,94.5C 154.239,94.369 154.906,94.5357 155.5,95C 153.709,95.4152 152.376,96.4152 151.5,98C 149.899,98.2734 148.399,98.7734 147,99.5C 146.086,98.3463 145.253,98.513 144.5,100C 145.258,102.845 144.258,105.179 141.5,107C 143.965,110.276 143.965,113.442 141.5,116.5C 136.786,112.721 131.953,109.054 127,105.5C 126.501,100.177 126.334,94.8437 126.5,89.5 Z"/></g>
<g><path style="opacity:1" fill="#47b51a" d="M 80.5,77.5 C 80.2525,79.8583 80.9192,81.8583 82.5,83.5C 81.0249,88.7574 80.3582,94.2574 80.5,100C 80.5014,103.683 80.8348,107.183 81.5,110.5C 81.5,110.833 81.5,111.167 81.5,111.5C 79.9519,111.821 79.2852,112.821 79.5,114.5C 78.834,109.511 78.5006,104.344 78.5,99C 78.294,91.5984 78.9607,84.4317 80.5,77.5 Z"/></g>
<g><path style="opacity:1" fill="#3c335a" d="M 184.5,86.5 C 183.612,91.0726 182.279,95.406 180.5,99.5C 180.265,98.9033 179.765,98.5699 179,98.5C 174.834,102.395 172.334,101.728 171.5,96.5C 169.069,97.3601 167.736,99.0268 167.5,101.5C 165.305,102.608 163.305,102.441 161.5,101C 161.056,99.4667 160.723,97.9667 160.5,96.5C 159.571,97.6888 159.238,99.0222 159.5,100.5C 157.897,100.312 156.563,100.812 155.5,102C 157.061,102.941 158.395,104.108 159.5,105.5C 156.902,106.68 155.236,108.68 154.5,111.5C 152.196,111.309 149.862,111.643 147.5,112.5C 147.36,114.124 148.027,115.29 149.5,116C 148.576,116.85 148.576,117.85 149.5,119C 148.944,120.011 148.278,120.844 147.5,121.5C 145.754,119.748 143.754,118.415 141.5,117.5C 141.5,117.167 141.5,116.833 141.5,116.5C 143.965,113.442 143.965,110.276 141.5,107C 144.258,105.179 145.258,102.845 144.5,100C 145.253,98.513 146.086,98.3463 147,99.5C 148.399,98.7734 149.899,98.2734 151.5,98C 152.376,96.4152 153.709,95.4152 155.5,95C 154.906,94.5357 154.239,94.369 153.5,94.5C 153.5,94.1667 153.5,93.8333 153.5,93.5C 163.903,91.4882 174.237,89.1549 184.5,86.5 Z"/></g>
<g><path style="opacity:0.922" fill="#604c42" d="M 14.5,94.5 C 15.1667,94.5 15.8333,94.5 16.5,94.5C 15.7106,95.915 15.0439,97.415 14.5,99C 14.8361,100.03 15.5028,100.53 16.5,100.5C 14.8729,102.63 13.0396,104.63 11,106.5C 10.8595,104.744 11.3595,103.078 12.5,101.5C 11.4425,101.094 10.1092,101.094 8.5,101.5C 10.5293,99.1415 12.5293,96.8082 14.5,94.5 Z"/></g>
<g><path style="opacity:1" fill="#11160c" d="M 16.5,100.5 C 16.8417,99.6618 17.5084,99.3284 18.5,99.5C 27.4465,100.444 36.4465,100.778 45.5,100.5C 50.8333,100.5 56.1667,100.5 61.5,100.5C 61.7373,101.791 61.404,102.791 60.5,103.5C 51.7747,109.379 43.4413,115.879 35.5,123C 29.9099,123.392 24.5765,122.392 19.5,120C 15.9349,116.604 12.6015,113.104 9.5,109.5C 12.6043,106.899 15.6043,104.066 18.5,101C 17.9056,100.536 17.2389,100.369 16.5,100.5 Z"/></g>
<g><path style="opacity:1" fill="#366f23" d="M 75.5,71.5 C 76.1471,72.2739 76.4805,73.2739 76.5,74.5C 72.9239,87.2085 72.5905,99.8752 75.5,112.5C 75.5,113.5 75.5,114.5 75.5,115.5C 75.1667,116.167 74.8333,116.833 74.5,117.5C 74.1667,117.5 73.8333,117.5 73.5,117.5C 72.5208,105.247 72.1874,92.9133 72.5,80.5C 74.561,77.9507 75.561,74.9507 75.5,71.5 Z"/></g>
<g><path style="opacity:0.81" fill="#03600b" d="M 189.5,73.5 C 191.567,73.5323 192.9,74.5323 193.5,76.5C 191.859,82.1077 190.526,87.7744 189.5,93.5C 188.596,94.209 188.263,95.209 188.5,96.5C 184.498,110.967 180.664,125.633 177,140.5C 174.342,141.694 173.176,140.694 173.5,137.5C 175.326,129.196 176.993,120.863 178.5,112.5C 182.609,99.7433 186.276,86.7433 189.5,73.5 Z"/></g>
<g><path style="opacity:0.475" fill="#5d9057" d="M 16.5,100.5 C 17.2389,100.369 17.9056,100.536 18.5,101C 15.6043,104.066 12.6043,106.899 9.5,109.5C 8.40168,110.601 8.23502,111.934 9,113.5C 10.4213,115.405 11.588,117.405 12.5,119.5C 11.8333,119.833 11.1667,120.167 10.5,120.5C 9.05234,118.445 7.719,116.278 6.5,114C 4.5273,113.505 2.5273,113.338 0.5,113.5C 0.166667,113.5 -0.166667,113.5 -0.5,113.5C -0.5,112.167 -0.5,110.833 -0.5,109.5C 2.5,106.833 5.5,104.167 8.5,101.5C 10.1092,101.094 11.4425,101.094 12.5,101.5C 11.3595,103.078 10.8595,104.744 11,106.5C 13.0396,104.63 14.8729,102.63 16.5,100.5 Z"/></g>
<g><path style="opacity:1" fill="#3f2f6f" d="M 180.5,99.5 C 179.673,103.807 179.007,108.14 178.5,112.5C 176.63,117.442 174.964,122.442 173.5,127.5C 171.063,127.244 168.729,126.577 166.5,125.5C 166.024,122.816 165.024,120.483 163.5,118.5C 161.936,123.39 158.602,125.39 153.5,124.5C 153.719,123.325 153.386,122.325 152.5,121.5C 150.801,122.815 149.135,122.815 147.5,121.5C 148.278,120.844 148.944,120.011 149.5,119C 148.576,117.85 148.576,116.85 149.5,116C 148.027,115.29 147.36,114.124 147.5,112.5C 149.862,111.643 152.196,111.309 154.5,111.5C 155.236,108.68 156.902,106.68 159.5,105.5C 158.395,104.108 157.061,102.941 155.5,102C 156.563,100.812 157.897,100.312 159.5,100.5C 159.238,99.0222 159.571,97.6888 160.5,96.5C 160.723,97.9667 161.056,99.4667 161.5,101C 163.305,102.441 165.305,102.608 167.5,101.5C 167.736,99.0268 169.069,97.3601 171.5,96.5C 172.334,101.728 174.834,102.395 179,98.5C 179.765,98.5699 180.265,98.9033 180.5,99.5 Z"/></g>
<g><path style="opacity:1" fill="#183a1b" d="M 125.5,83.5 C 126.461,85.2646 126.795,87.2646 126.5,89.5C 126.334,94.8437 126.501,100.177 127,105.5C 131.953,109.054 136.786,112.721 141.5,116.5C 141.5,116.833 141.5,117.167 141.5,117.5C 142.607,120.361 143.773,123.028 145,125.5C 143.266,124.751 141.433,124.251 139.5,124C 140.428,123.612 141.095,122.945 141.5,122C 138.784,117.588 135.784,117.422 132.5,121.5C 132.709,122.086 133.043,122.586 133.5,123C 131.277,123.566 129.277,124.4 127.5,125.5C 126.5,124.833 125.5,124.167 124.5,123.5C 125.247,110.18 125.58,96.8467 125.5,83.5 Z"/></g>
<g><path style="opacity:0.18" fill="#171f1d" d="M 0.5,113.5 C 2.5273,113.338 4.5273,113.505 6.5,114C 7.719,116.278 9.05234,118.445 10.5,120.5C 11.3231,123.351 12.6565,126.018 14.5,128.5C 13.8118,129.855 12.8118,130.855 11.5,131.5C 8.53753,128.036 5.37086,124.703 2,121.5C 0.747507,118.986 0.247507,116.32 0.5,113.5 Z"/></g>
<g><path style="opacity:0.861" fill="#0c692a" d="M 12.5,119.5 C 14.6298,121.127 16.6298,122.96 18.5,125C 17.6721,125.915 16.6721,126.581 15.5,127C 16.2931,128.085 16.9598,129.252 17.5,130.5C 16.3698,131.622 15.7031,132.956 15.5,134.5C 14.5326,133.194 13.1993,132.527 11.5,132.5C 11.5,132.167 11.5,131.833 11.5,131.5C 12.8118,130.855 13.8118,129.855 14.5,128.5C 12.6565,126.018 11.3231,123.351 10.5,120.5C 11.1667,120.167 11.8333,119.833 12.5,119.5 Z"/></g>
<g><path style="opacity:1" fill="#656f25" d="M 65.5,80.5 C 66.1582,81.7933 66.4915,83.2933 66.5,85C 64.5782,99.1099 63.2448,113.277 62.5,127.5C 62.5,127.833 62.5,128.167 62.5,128.5C 61.8333,128.5 61.5,128.833 61.5,129.5C 60.2058,130.29 59.0391,131.29 58,132.5C 55.5485,139.383 53.7152,146.383 52.5,153.5C 54.861,153.674 57.1944,154.007 59.5,154.5C 59.5,155.833 59.5,157.167 59.5,158.5C 59.7845,160.415 59.4511,162.081 58.5,163.5C 55.0969,161.1 52.4302,158.1 50.5,154.5C 51.9818,145.125 53.6485,135.792 55.5,126.5C 57.5454,118.942 59.212,111.275 60.5,103.5C 61.404,102.791 61.7373,101.791 61.5,100.5C 63.4422,93.9924 64.7756,87.3257 65.5,80.5 Z"/></g>
<g><path style="opacity:1" fill="#57f125" d="M 117.5,135.5 C 114.696,136.638 111.696,136.805 108.5,136C 110.457,133.879 110.957,131.379 110,128.5C 109.586,128.957 109.086,129.291 108.5,129.5C 107.571,128.311 107.238,126.978 107.5,125.5C 107.667,110.83 107.5,96.1629 107,81.5C 106.562,78.624 105.562,75.9573 104,73.5C 97.4781,69.97 93.4781,71.97 92,79.5C 91.3333,92.1667 91.3333,104.833 92,117.5C 92.0036,120.792 93.1703,123.458 95.5,125.5C 96.209,126.404 97.209,126.737 98.5,126.5C 98.5079,129.545 98.8413,132.545 99.5,135.5C 96.3601,136.641 93.0267,136.808 89.5,136C 83.1971,130.277 79.8638,123.11 79.5,114.5C 79.2852,112.821 79.9519,111.821 81.5,111.5C 82.1663,115.021 82.8329,118.687 83.5,122.5C 85.1445,124.925 86.3112,127.592 87,130.5C 90.0448,133.436 93.5448,134.103 97.5,132.5C 96.3446,131.05 94.8446,130.05 93,129.5C 89.6,121.897 87.7666,113.897 87.5,105.5C 88.6018,101.253 88.7684,96.9196 88,92.5C 86.1555,89.4721 84.3222,86.4721 82.5,83.5C 80.9192,81.8583 80.2525,79.8583 80.5,77.5C 82.0751,69.7653 86.4084,64.2653 93.5,61C 103.375,58.7313 110.875,61.8979 116,70.5C 122.36,90.6613 121.86,110.661 114.5,130.5C 115.092,132.423 116.092,134.089 117.5,135.5 Z"/></g>
<g><path style="opacity:1" fill="#92bb84" d="M 102.5,114.5 C 102.664,117.187 102.497,119.854 102,122.5C 100.989,123.337 99.8221,123.67 98.5,123.5C 98.7678,121.901 98.4345,120.568 97.5,119.5C 95.7832,115.425 95.2832,111.092 96,106.5C 98.7585,108.751 100.925,111.418 102.5,114.5 Z"/></g>
<g><path style="opacity:1" fill="#379116" d="M 108.5,65.5 C 109.845,67.6968 111.011,70.0302 112,72.5C 114.261,79.4676 115.761,86.6343 116.5,94C 116.314,99.023 114.814,103.523 112,107.5C 109.877,101.423 110.044,95.4232 112.5,89.5C 111.733,83.8966 110.4,78.5632 108.5,73.5C 107.742,70.6481 107.742,67.9815 108.5,65.5 Z"/></g>
<g><path style="opacity:1" fill="#39b60a" d="M 108.5,65.5 C 111.231,67.0714 113.065,69.4048 114,72.5C 118.651,86.674 119.484,101.007 116.5,115.5C 113.386,114.909 110.886,113.242 109,110.5C 109.446,98.1082 109.28,85.7749 108.5,73.5C 110.4,78.5632 111.733,83.8966 112.5,89.5C 110.044,95.4232 109.877,101.423 112,107.5C 114.814,103.523 116.314,99.023 116.5,94C 115.761,86.6343 114.261,79.4676 112,72.5C 111.011,70.0302 109.845,67.6968 108.5,65.5 Z"/></g>
<g><path style="opacity:1" fill="#48e71d" d="M 104.5,116.5 C 103.833,115.833 103.167,115.167 102.5,114.5C 100.925,111.418 98.7585,108.751 96,106.5C 95.2832,111.092 95.7832,115.425 97.5,119.5C 97.7373,120.791 97.404,121.791 96.5,122.5C 95.7321,121.737 95.2321,120.737 95,119.5C 94.417,110.838 93.917,102.171 93.5,93.5C 93.1096,87.2358 94.1096,81.2358 96.5,75.5C 100.668,73.5143 103.168,74.8476 104,79.5C 104.5,91.8288 104.667,104.162 104.5,116.5 Z"/></g>
<g><path style="opacity:1" fill="#176f00" d="M 96.5,94.5 C 98.8333,94.5 101.167,94.5 103.5,94.5C 103.823,98.226 103.489,101.893 102.5,105.5C 98.8838,103.709 96.2171,101.043 94.5,97.5C 94.9424,96.2613 95.6091,95.2613 96.5,94.5 Z"/></g>
<g><path style="opacity:1" fill="#3bab18" d="M 108.5,65.5 C 107.742,67.9815 107.742,70.6481 108.5,73.5C 106.114,72.6267 104.114,71.1267 102.5,69C 100.5,68.3333 98.5,68.3333 96.5,69C 93.93,71.0673 91.93,73.5673 90.5,76.5C 88.2946,75.1293 86.628,73.296 85.5,71C 88.55,64.4461 93.7167,61.6127 101,62.5C 103.759,63.1392 106.259,64.1392 108.5,65.5 Z"/></g>
<g><path style="opacity:0.679" fill="#080808" d="M 60.5,103.5 C 59.212,111.275 57.5454,118.942 55.5,126.5C 51.1539,126.334 46.8206,126.501 42.5,127C 40.0649,130.162 38.0649,133.662 36.5,137.5C 35.0663,136.064 33.8996,134.398 33,132.5C 31.5944,133.668 30.4277,133.335 29.5,131.5C 29.1667,132 28.8333,132.5 28.5,133C 35.0477,141.049 42.381,148.215 50.5,154.5C 52.4302,158.1 55.0969,161.1 58.5,163.5C 58.5,164.167 58.8333,164.5 59.5,164.5C 63.1766,169.01 67.3433,173.01 72,176.5C 77.8051,174.629 83.3051,172.296 88.5,169.5C 94.3807,167.875 100.047,165.875 105.5,163.5C 114.872,160.934 123.872,157.601 132.5,153.5C 139.167,151.5 145.833,149.5 152.5,147.5C 153.71,147.068 154.71,146.401 155.5,145.5C 160.252,143.807 164.919,142.14 169.5,140.5C 171.283,136.387 172.616,132.054 173.5,127.5C 174.964,122.442 176.63,117.442 178.5,112.5C 176.993,120.863 175.326,129.196 173.5,137.5C 172.776,139.218 172.109,141.052 171.5,143C 161.723,146.389 152.056,150.056 142.5,154C 147.112,155.059 151.446,156.559 155.5,158.5C 153.973,158.427 152.973,159.094 152.5,160.5C 151.5,161.833 150.5,163.167 149.5,164.5C 148.601,163.528 147.434,162.862 146,162.5C 140.443,164.075 134.943,165.742 129.5,167.5C 126.794,167.688 124.461,168.688 122.5,170.5C 119.261,171.462 116.261,172.795 113.5,174.5C 111.592,175.486 110.592,177.152 110.5,179.5C 105.481,178.643 101.815,180.309 99.5,184.5C 98.1667,184.5 96.8333,184.5 95.5,184.5C 96.2916,183.033 96.2916,181.7 95.5,180.5C 87.7559,183.056 80.4226,186.056 73.5,189.5C 72.4324,190.434 71.099,190.768 69.5,190.5C 66.1938,186.527 62.5271,182.86 58.5,179.5C 57.9202,177.251 56.5869,175.585 54.5,174.5C 52.5273,173.194 50.8606,171.527 49.5,169.5C 51.0443,169.703 52.3777,170.37 53.5,171.5C 54.6139,170.277 54.7805,168.944 54,167.5C 50.9838,164.651 48.1504,161.651 45.5,158.5C 44.5481,160.045 44.2148,161.712 44.5,163.5C 42.5,162.167 40.8333,160.5 39.5,158.5C 41.3784,152.269 40.0451,151.269 35.5,155.5C 29.1667,148.5 22.5,141.833 15.5,135.5C 15.5,135.167 15.5,134.833 15.5,134.5C 15.7031,132.956 16.3698,131.622 17.5,130.5C 16.9598,129.252 16.2931,128.085 15.5,127C 16.6721,126.581 17.6721,125.915 18.5,125C 16.6298,122.96 14.6298,121.127 12.5,119.5C 11.588,117.405 10.4213,115.405 9,113.5C 8.23502,111.934 8.40168,110.601 9.5,109.5C 12.6015,113.104 15.9349,116.604 19.5,120C 24.5765,122.392 29.9099,123.392 35.5,123C 43.4413,115.879 51.7747,109.379 60.5,103.5 Z"/></g>
<g><path style="opacity:1" fill="#96f16e" d="M 102.5,114.5 C 103.167,115.167 103.833,115.833 104.5,116.5C 104.666,120.514 104.499,124.514 104,128.5C 103.313,131.457 101.813,133.791 99.5,135.5C 98.8413,132.545 98.5079,129.545 98.5,126.5C 97.209,126.737 96.209,126.404 95.5,125.5C 97.7957,125.196 98.129,124.196 96.5,122.5C 97.404,121.791 97.7373,120.791 97.5,119.5C 98.4345,120.568 98.7678,121.901 98.5,123.5C 99.8221,123.67 100.989,123.337 102,122.5C 102.497,119.854 102.664,117.187 102.5,114.5 Z"/></g>
<g><path style="opacity:1" fill="#2cce05" d="M 87.5,105.5 C 87.7666,113.897 89.6,121.897 93,129.5C 94.8446,130.05 96.3446,131.05 97.5,132.5C 93.5448,134.103 90.0448,133.436 87,130.5C 86.3112,127.592 85.1445,124.925 83.5,122.5C 82.8329,118.687 82.1663,115.021 81.5,111.5C 81.5,111.167 81.5,110.833 81.5,110.5C 83.5,108.833 85.5,107.167 87.5,105.5 Z"/></g>
<g><path style="opacity:1" fill="#2baa20" d="M 73.5,117.5 C 73.8333,117.5 74.1667,117.5 74.5,117.5C 75.8645,122.018 76.8645,126.685 77.5,131.5C 76.5,131.5 75.5,131.5 74.5,131.5C 70.3609,130.706 66.3609,129.706 62.5,128.5C 62.5,128.167 62.5,127.833 62.5,127.5C 65.859,124.471 69.1924,121.471 72.5,118.5C 73.1667,118.5 73.5,118.167 73.5,117.5 Z"/></g>
<g><path style="opacity:1" fill="#30c938" d="M 123.5,123.5 C 123.833,123.5 124.167,123.5 124.5,123.5C 125.5,124.167 126.5,124.833 127.5,125.5C 131.833,129.5 136.167,133.5 140.5,137.5C 138.227,140.171 135.227,141.505 131.5,141.5C 130.167,141.5 128.833,141.5 127.5,141.5C 126.5,141.5 125.5,141.5 124.5,141.5C 124.663,139.143 124.497,136.81 124,134.5C 122.141,133.355 121.307,131.688 121.5,129.5C 121.719,127.307 122.385,125.307 123.5,123.5 Z"/></g>
<g><path style="opacity:1" fill="#66f936" d="M 120.5,121.5 C 122.027,121.427 123.027,122.094 123.5,123.5C 122.385,125.307 121.719,127.307 121.5,129.5C 121.307,131.688 122.141,133.355 124,134.5C 124.497,136.81 124.663,139.143 124.5,141.5C 119.246,144.383 114.246,144.05 109.5,140.5C 114.099,140.8 118.599,140.467 123,139.5C 123.667,138.833 123.667,138.167 123,137.5C 120.55,135.427 118.717,132.927 117.5,130C 118.803,127.256 119.803,124.423 120.5,121.5 Z"/></g>
<g><path style="opacity:0.26" fill="#04febc" d="M 11.5,132.5 C 13.1993,132.527 14.5326,133.194 15.5,134.5C 15.5,134.833 15.5,135.167 15.5,135.5C 14.407,137.349 13.0737,139.016 11.5,140.5C 10.1667,140.5 8.83333,140.5 7.5,140.5C 8.39944,137.605 9.73277,134.938 11.5,132.5 Z"/></g>
<g><path style="opacity:1" fill="#639d64" d="M 62.5,128.5 C 66.3609,129.706 70.3609,130.706 74.5,131.5C 74.8923,133.179 75.3923,134.846 76,136.5C 78.4296,139.406 81.2629,141.739 84.5,143.5C 80.4734,142.993 77.3067,140.993 75,137.5C 73.3005,138.406 71.4672,138.739 69.5,138.5C 69.0482,142.163 68.5482,145.83 68,149.5C 66.3896,147.403 65.2229,145.07 64.5,142.5C 62.4589,143.707 61.1255,145.374 60.5,147.5C 60.701,141.491 61.0343,135.491 61.5,129.5C 61.5,128.833 61.8333,128.5 62.5,128.5 Z"/></g>
<g><path style="opacity:1" fill="#14091c" d="M 55.5,126.5 C 53.6485,135.792 51.9818,145.125 50.5,154.5C 42.381,148.215 35.0477,141.049 28.5,133C 28.8333,132.5 29.1667,132 29.5,131.5C 30.4277,133.335 31.5944,133.668 33,132.5C 33.8996,134.398 35.0663,136.064 36.5,137.5C 38.0649,133.662 40.0649,130.162 42.5,127C 46.8206,126.501 51.1539,126.334 55.5,126.5 Z"/></g>
<g><path style="opacity:1" fill="#74df51" d="M 75.5,115.5 C 77.501,121.12 79.6677,126.787 82,132.5C 83.0458,134.09 84.2125,135.59 85.5,137C 98.0949,142.871 105.428,139.038 107.5,125.5C 107.238,126.978 107.571,128.311 108.5,129.5C 109.086,129.291 109.586,128.957 110,128.5C 110.957,131.379 110.457,133.879 108.5,136C 111.696,136.805 114.696,136.638 117.5,135.5C 118.043,135.56 118.376,135.893 118.5,136.5C 115.232,137.487 111.898,137.82 108.5,137.5C 100.04,144.887 91.04,145.387 81.5,139C 79.4598,136.815 78.1264,134.315 77.5,131.5C 76.8645,126.685 75.8645,122.018 74.5,117.5C 74.8333,116.833 75.1667,116.167 75.5,115.5 Z"/></g>
<g><path style="opacity:1" fill="#2b5f3c" d="M 169.5,140.5 C 164.919,142.14 160.252,143.807 155.5,145.5C 157.39,141.603 160.056,138.27 163.5,135.5C 165.837,136.843 167.837,138.51 169.5,140.5 Z"/></g>
<g><path style="opacity:1" fill="#3baf54" d="M 140.5,137.5 C 142.833,138.833 145.167,140.167 147.5,141.5C 148.167,142.833 149.167,143.833 150.5,144.5C 144,145.14 137.667,144.14 131.5,141.5C 135.227,141.505 138.227,140.171 140.5,137.5 Z"/></g>
<g><path style="opacity:1" fill="#062c11" d="M 150.5,144.5 C 149.167,143.833 148.167,142.833 147.5,141.5C 149.436,139.885 150.436,137.718 150.5,135C 149.04,125.952 151.707,124.452 158.5,130.5C 157.167,131.167 155.833,131.833 154.5,132.5C 153.22,135.515 152.887,138.515 153.5,141.5C 152.66,142.735 151.66,143.735 150.5,144.5 Z"/></g>
<g><path style="opacity:1" fill="#1f3139" d="M 141.5,117.5 C 143.754,118.415 145.754,119.748 147.5,121.5C 149.135,122.815 150.801,122.815 152.5,121.5C 153.386,122.325 153.719,123.325 153.5,124.5C 158.602,125.39 161.936,123.39 163.5,118.5C 165.024,120.483 166.024,122.816 166.5,125.5C 168.729,126.577 171.063,127.244 173.5,127.5C 172.616,132.054 171.283,136.387 169.5,140.5C 167.837,138.51 165.837,136.843 163.5,135.5C 160.056,138.27 157.39,141.603 155.5,145.5C 154.71,146.401 153.71,147.068 152.5,147.5C 152.573,145.973 151.906,144.973 150.5,144.5C 151.66,143.735 152.66,142.735 153.5,141.5C 152.887,138.515 153.22,135.515 154.5,132.5C 155.833,131.833 157.167,131.167 158.5,130.5C 151.707,124.452 149.04,125.952 150.5,135C 150.436,137.718 149.436,139.885 147.5,141.5C 145.167,140.167 142.833,138.833 140.5,137.5C 136.167,133.5 131.833,129.5 127.5,125.5C 129.277,124.4 131.277,123.566 133.5,123C 133.043,122.586 132.709,122.086 132.5,121.5C 135.784,117.422 138.784,117.588 141.5,122C 141.095,122.945 140.428,123.612 139.5,124C 141.433,124.251 143.266,124.751 145,125.5C 143.773,123.028 142.607,120.361 141.5,117.5 Z"/></g>
<g><path style="opacity:0.122" fill="#32fe1f" d="M 7.5,140.5 C 8.83333,140.5 10.1667,140.5 11.5,140.5C 10.962,142.117 10.6287,143.784 10.5,145.5C 9.26315,144.035 8.26315,142.368 7.5,140.5 Z"/></g>
<g><path style="opacity:1" fill="#6e9f7b" d="M 84.5,143.5 C 89.6825,145.251 95.0158,145.751 100.5,145C 104.033,140.447 107.7,140.447 111.5,145C 115.167,145.667 118.833,145.667 122.5,145C 124.431,144.098 126.097,142.931 127.5,141.5C 128.833,141.5 130.167,141.5 131.5,141.5C 137.667,144.14 144,145.14 150.5,144.5C 151.906,144.973 152.573,145.973 152.5,147.5C 145.833,149.5 139.167,151.5 132.5,153.5C 130.901,150.398 128.734,147.731 126,145.5C 123.602,146.999 120.935,147.666 118,147.5C 112.642,147.031 107.476,146.031 102.5,144.5C 102.5,145.5 102.5,146.5 102.5,147.5C 95.2704,148.901 88.1038,148.567 81,146.5C 79.2552,147.956 77.4219,149.289 75.5,150.5C 74.8076,149.975 74.3076,149.308 74,148.5C 71.2751,150.758 68.2751,151.091 65,149.5C 64.323,151.689 63.1563,152.022 61.5,150.5C 60.8243,151.602 60.1577,152.602 59.5,153.5C 59.5172,151.435 59.8505,149.435 60.5,147.5C 61.1255,145.374 62.4589,143.707 64.5,142.5C 65.2229,145.07 66.3896,147.403 68,149.5C 68.5482,145.83 69.0482,142.163 69.5,138.5C 71.4672,138.739 73.3005,138.406 75,137.5C 77.3067,140.993 80.4734,142.993 84.5,143.5 Z"/></g>
<g><path style="opacity:1" fill="#75bf68" d="M 74.5,131.5 C 75.5,131.5 76.5,131.5 77.5,131.5C 78.1264,134.315 79.4598,136.815 81.5,139C 91.04,145.387 100.04,144.887 108.5,137.5C 108.263,138.791 108.596,139.791 109.5,140.5C 114.246,144.05 119.246,144.383 124.5,141.5C 125.5,141.5 126.5,141.5 127.5,141.5C 126.097,142.931 124.431,144.098 122.5,145C 118.833,145.667 115.167,145.667 111.5,145C 107.7,140.447 104.033,140.447 100.5,145C 95.0158,145.751 89.6825,145.251 84.5,143.5C 81.2629,141.739 78.4296,139.406 76,136.5C 75.3923,134.846 74.8923,133.179 74.5,131.5 Z"/></g>
<g><path style="opacity:1" fill="#638921" d="M 61.5,129.5 C 61.0343,135.491 60.701,141.491 60.5,147.5C 59.8505,149.435 59.5172,151.435 59.5,153.5C 59.5,153.833 59.5,154.167 59.5,154.5C 57.1944,154.007 54.861,153.674 52.5,153.5C 53.7152,146.383 55.5485,139.383 58,132.5C 59.0391,131.29 60.2058,130.29 61.5,129.5 Z"/></g>
<g><path style="opacity:0.255" fill="#eaffe5" d="M 178.5,145.5 C 180.483,145.157 181.817,145.824 182.5,147.5C 182.027,148.906 181.027,149.573 179.5,149.5C 178.094,149.027 177.427,148.027 177.5,146.5C 177.5,145.833 177.833,145.5 178.5,145.5 Z"/></g>
<g><path style="opacity:0.008" fill="#23ff00" d="M 10.5,145.5 C 11.3382,145.842 11.6716,146.508 11.5,147.5C 10.6618,147.158 10.3284,146.492 10.5,145.5 Z"/></g>
<g><path style="opacity:0.024" fill="#2ad529" d="M 11.5,147.5 C 12.1667,147.5 12.5,147.833 12.5,148.5C 12.1667,148.167 11.8333,147.833 11.5,147.5 Z"/></g>
<g><path style="opacity:0.781" fill="#08330b" d="M 188.5,96.5 C 188.842,97.3382 189.508,97.6716 190.5,97.5C 188.191,105.06 186.691,112.727 186,120.5C 186.635,121.966 187.469,123.3 188.5,124.5C 191.167,125.167 193.833,125.833 196.5,126.5C 195.96,127.748 195.293,128.915 194.5,130C 192.423,130.192 190.423,130.692 188.5,131.5C 186.707,134.251 185.041,137.084 183.5,140C 182.004,140.507 180.837,140.007 180,138.5C 179.023,140.74 178.523,143.073 178.5,145.5C 177.833,145.5 177.5,145.833 177.5,146.5C 176.082,148.187 174.749,150.02 173.5,152C 167.367,153.905 161.367,156.071 155.5,158.5C 151.446,156.559 147.112,155.059 142.5,154C 152.056,150.056 161.723,146.389 171.5,143C 172.109,141.052 172.776,139.218 173.5,137.5C 173.176,140.694 174.342,141.694 177,140.5C 180.664,125.633 184.498,110.967 188.5,96.5 Z M 182.5,126.5 C 183.497,126.47 184.164,126.97 184.5,128C 181.537,135.067 180.87,134.567 182.5,126.5 Z"/></g>
<g><path style="opacity:0.271" fill="#1effc2" d="M 182.5,147.5 C 183.479,148.765 184.479,150.099 185.5,151.5C 182.473,156.596 180.473,155.929 179.5,149.5C 181.027,149.573 182.027,148.906 182.5,147.5 Z"/></g>
<g><path style="opacity:0.027" fill="#335f1d" d="M 12.5,148.5 C 13.3382,148.842 13.6716,149.508 13.5,150.5C 12.6618,150.158 12.3284,149.492 12.5,148.5 Z"/></g>
<g><path style="opacity:0.02" fill="#3f9e00" d="M 13.5,150.5 C 14.3382,150.842 14.6716,151.508 14.5,152.5C 13.6618,152.158 13.3284,151.492 13.5,150.5 Z"/></g>
<g><path style="opacity:0.016" fill="#3f8000" d="M 14.5,152.5 C 15.8333,153.167 15.8333,153.167 14.5,152.5 Z"/></g>
<g><path style="opacity:1" fill="#5e866f" d="M 102.5,147.5 C 103.159,150.455 103.492,153.455 103.5,156.5C 102.711,160.392 100.378,162.725 96.5,163.5C 96.5,162.5 96.5,161.5 96.5,160.5C 89.8499,160.233 83.8499,161.899 78.5,165.5C 75.4625,162.535 71.9625,161.535 68,162.5C 65.7032,160.039 62.8699,158.706 59.5,158.5C 59.5,157.167 59.5,155.833 59.5,154.5C 59.5,154.167 59.5,153.833 59.5,153.5C 60.1577,152.602 60.8243,151.602 61.5,150.5C 63.1563,152.022 64.323,151.689 65,149.5C 68.2751,151.091 71.2751,150.758 74,148.5C 74.3076,149.308 74.8076,149.975 75.5,150.5C 77.4219,149.289 79.2552,147.956 81,146.5C 88.1038,148.567 95.2704,148.901 102.5,147.5 Z"/></g>
<g><path style="opacity:0.012" fill="#54aa00" d="M 16.5,155.5 C 15.8333,154.167 15.8333,154.167 16.5,155.5 Z"/></g>
<g><path style="opacity:1" fill="#9184a2" d="M 132.5,153.5 C 123.872,157.601 114.872,160.934 105.5,163.5C 105.59,160.848 104.924,158.515 103.5,156.5C 103.492,153.455 103.159,150.455 102.5,147.5C 102.5,146.5 102.5,145.5 102.5,144.5C 107.476,146.031 112.642,147.031 118,147.5C 120.935,147.666 123.602,146.999 126,145.5C 128.734,147.731 130.901,150.398 132.5,153.5 Z"/></g>
<g><path style="opacity:0.004" fill="#00ff00" d="M 16.5,155.5 C 17.8333,156.167 17.8333,156.167 16.5,155.5 Z"/></g>
<g><path style="opacity:0.004" fill="#00ff00" d="M 18.5,158.5 C 17.8333,157.167 17.8333,157.167 18.5,158.5 Z"/></g>
<g><path style="opacity:0.324" fill="#37a818" d="M 18.5,158.5 C 21.8333,158.5 25.1667,158.5 28.5,158.5C 28.5,159.833 28.5,161.167 28.5,162.5C 24.1372,163.264 20.8039,161.931 18.5,158.5 Z"/></g>
<g><path style="opacity:0.193" fill="#1b2200" d="M 49.5,169.5 C 47.8437,167.54 46.177,165.54 44.5,163.5C 44.2148,161.712 44.5481,160.045 45.5,158.5C 48.1504,161.651 50.9838,164.651 54,167.5C 54.7805,168.944 54.6139,170.277 53.5,171.5C 52.3777,170.37 51.0443,169.703 49.5,169.5 Z"/></g>
<g><path style="opacity:0.295" fill="#e9fce5" d="M 152.5,160.5 C 154.196,163.85 155.863,167.183 157.5,170.5C 155.973,170.427 154.973,171.094 154.5,172.5C 152.347,170.206 150.68,167.54 149.5,164.5C 150.5,163.167 151.5,161.833 152.5,160.5 Z"/></g>
<g><path style="opacity:0.324" fill="#486440" d="M 39.5,158.5 C 38.4265,159.251 38.2599,160.251 39,161.5C 41.3333,165.5 43.6667,169.5 46,173.5C 48.7191,174.444 51.5525,174.777 54.5,174.5C 56.5869,175.585 57.9202,177.251 58.5,179.5C 52.9917,178.776 47.9917,179.776 43.5,182.5C 39.9469,181.375 39.6135,179.542 42.5,177C 40,172.5 37.5,168 35,163.5C 32.9592,162.577 30.7925,162.244 28.5,162.5C 28.5,161.167 28.5,159.833 28.5,158.5C 30.5273,158.662 32.5273,158.495 34.5,158C 35.2524,157.329 35.5858,156.496 35.5,155.5C 40.0451,151.269 41.3784,152.269 39.5,158.5 Z"/></g>
<g><path style="opacity:1" fill="#445d5a" d="M 103.5,156.5 C 104.924,158.515 105.59,160.848 105.5,163.5C 100.047,165.875 94.3807,167.875 88.5,169.5C 84.6421,170.825 80.6421,171.325 76.5,171C 71.0368,168.267 65.3702,166.1 59.5,164.5C 58.8333,164.5 58.5,164.167 58.5,163.5C 59.4511,162.081 59.7845,160.415 59.5,158.5C 62.8699,158.706 65.7032,160.039 68,162.5C 71.9625,161.535 75.4625,162.535 78.5,165.5C 83.8499,161.899 89.8499,160.233 96.5,160.5C 96.5,161.5 96.5,162.5 96.5,163.5C 100.378,162.725 102.711,160.392 103.5,156.5 Z"/></g>
<g><path style="opacity:1" fill="#2f3c48" d="M 59.5,164.5 C 65.3702,166.1 71.0368,168.267 76.5,171C 80.6421,171.325 84.6421,170.825 88.5,169.5C 83.3051,172.296 77.8051,174.629 72,176.5C 67.3433,173.01 63.1766,169.01 59.5,164.5 Z"/></g>
<g><path style="opacity:0.292" fill="#1dffbf" d="M 157.5,170.5 C 158.833,171.833 160.167,173.167 161.5,174.5C 160.07,175.537 158.403,176.204 156.5,176.5C 155.326,175.486 154.66,174.153 154.5,172.5C 154.973,171.094 155.973,170.427 157.5,170.5 Z"/></g>
<g><path style="opacity:0.313" fill="#b20b5d" d="M 129.5,167.5 C 127.966,170.735 126.299,173.901 124.5,177C 125.711,179.92 127.044,182.753 128.5,185.5C 126.938,185.733 125.605,186.4 124.5,187.5C 123.194,185.184 121.861,182.85 120.5,180.5C 117.232,179.513 113.898,179.18 110.5,179.5C 110.592,177.152 111.592,175.486 113.5,174.5C 116.247,174.813 118.914,174.48 121.5,173.5C 122.127,172.583 122.461,171.583 122.5,170.5C 124.461,168.688 126.794,167.688 129.5,167.5 Z"/></g>
<g><path style="opacity:0.312" fill="#30fc11" d="M 161.5,174.5 C 162.873,174.343 164.207,174.51 165.5,175C 163.499,177.325 161.166,179.158 158.5,180.5C 157.167,180.5 155.833,180.5 154.5,180.5C 155.167,179.167 155.833,177.833 156.5,176.5C 158.403,176.204 160.07,175.537 161.5,174.5 Z"/></g>
<g><path style="opacity:0.325" fill="#59814a" d="M 154.5,180.5 C 155.833,180.5 157.167,180.5 158.5,180.5C 156.795,182.192 154.795,183.525 152.5,184.5C 152.66,182.847 153.326,181.514 154.5,180.5 Z"/></g>
<g><path style="opacity:0.319" fill="#354f30" d="M 95.5,184.5 C 96.8333,184.5 98.1667,184.5 99.5,184.5C 98.1862,187.489 96.8528,190.489 95.5,193.5C 96.4892,195.494 97.4892,197.494 98.5,199.5C 96.8333,199.5 95.1667,199.5 93.5,199.5C 92.9717,198.279 92.305,197.113 91.5,196C 84.781,195.457 78.1143,195.457 71.5,196C 70.7556,194.185 70.0889,192.352 69.5,190.5C 71.099,190.768 72.4324,190.434 73.5,189.5C 79.2415,191.716 85.2415,192.049 91.5,190.5C 92.3611,188.089 93.6944,186.089 95.5,184.5 Z"/></g>
<g><path style="opacity:0.008" fill="#7f8000" d="M 152.5,184.5 C 151.833,185.167 151.833,185.167 152.5,184.5 Z"/></g>
<g><path style="opacity:0.272" fill="#020c00" d="M 128.5,185.5 C 129.725,186.937 130.725,188.604 131.5,190.5C 133.766,191.314 136.1,191.814 138.5,192C 134.979,193.674 131.313,194.84 127.5,195.5C 127.461,192.465 126.461,189.798 124.5,187.5C 125.605,186.4 126.938,185.733 128.5,185.5 Z"/></g>
<g><path style="opacity:0.004" fill="#000000" d="M 127.5,195.5 C 126.833,196.167 126.833,196.167 127.5,195.5 Z"/></g>
</svg>
